<svg width="227" height="44" viewBox="0 0 227 44" fill="none" xmlns="http://www.w3.org/2000/svg">
<g clip-path="url(#clip0_503_259)">
<path d="M0.398438 17.0001V0.704065H3.44644L8.15044 7.95207V7.97607L12.8785 0.704065H15.9265V17.0001H13.3345V4.64007L9.35044 10.6881H6.97444L2.99044 4.64007V17.0001H0.398438ZM145.779 17.3601C140.427 17.4321 136.707 13.4961 136.779 8.84007C136.707 4.18406 140.427 0.248065 145.779 0.320064C148.467 0.320064 150.219 1.18407 151.059 1.76007V4.52007C150.915 4.28007 148.635 2.76807 145.779 2.76807C141.819 2.76807 139.491 5.43207 139.491 8.84007C139.491 12.2721 141.819 14.8881 145.779 14.8881C147.915 14.8881 150.123 14.2641 151.515 13.0881V15.8961C151.131 16.1121 149.451 17.3601 145.779 17.3601ZM160.35 17.3601C156.582 17.3601 153.558 14.4321 153.558 10.8081C153.558 7.18406 156.582 4.23207 160.35 4.23207C164.118 4.23207 167.142 7.18406 167.142 10.8081C167.142 14.4321 164.118 17.3601 160.35 17.3601ZM160.35 15.0321C162.798 15.0321 164.646 13.1361 164.646 10.8081C164.646 8.45606 162.798 6.56007 160.35 6.56007C157.902 6.56007 156.054 8.45606 156.054 10.8081C156.054 13.1361 157.902 15.0321 160.35 15.0321ZM175.433 17.3841C173.873 17.3841 169.793 17.2641 169.793 11.9841V4.59207H172.385V12.0561C172.385 12.0561 172.241 15.1041 175.433 15.1041C178.625 15.1041 178.481 12.0561 178.481 12.0561V4.59207H181.073V11.9841C181.073 17.2641 176.993 17.3841 175.433 17.3841ZM184.682 17.0001V4.56807H187.274V6.96807C187.85 5.45607 189.722 4.20807 192.362 4.20807V6.34407C189.218 6.34407 187.322 8.14407 187.274 10.7841V17.0001H184.682ZM197.003 17.3601C194.891 17.3601 193.331 16.1841 193.331 16.1841V13.6401C193.331 13.6401 194.963 15.0561 196.979 15.0561C198.635 15.0561 199.475 14.5521 199.475 13.7361C199.475 12.8241 198.635 12.2721 197.171 11.4561C195.539 10.5441 194.051 9.75207 194.051 7.68807C194.051 5.57607 195.899 4.23207 198.155 4.23207C199.667 4.23207 200.771 4.68807 201.371 5.04807V7.59207C200.819 7.06407 199.715 6.53607 198.467 6.53607C197.075 6.53607 196.499 6.99207 196.499 7.64007C196.499 8.43207 197.171 8.69607 199.307 9.94407C200.963 10.9041 201.899 11.7201 201.899 13.5921C201.899 15.4881 200.483 17.3601 197.003 17.3601ZM210.812 17.3601C206.444 17.3601 203.948 14.3601 203.948 10.7841C203.948 7.06407 206.804 4.23207 210.644 4.23207C214.244 4.23207 216.332 7.20807 216.332 10.2081V11.4081H206.42C206.708 13.3281 208.052 15.0561 210.86 15.0561C213.908 15.0561 215.756 13.7601 215.78 13.7601V16.0881C215.78 16.0881 214.436 17.3601 210.812 17.3601ZM206.54 9.39207H213.74C213.644 8.43207 213.02 6.34407 210.308 6.34407C207.596 6.34407 206.684 8.43207 206.54 9.39207ZM221.917 17.3601C219.805 17.3601 218.245 16.1841 218.245 16.1841V13.6401C218.245 13.6401 219.877 15.0561 221.893 15.0561C223.549 15.0561 224.389 14.5521 224.389 13.7361C224.389 12.8241 223.549 12.2721 222.085 11.4561C220.453 10.5441 218.965 9.75207 218.965 7.68807C218.965 5.57607 220.813 4.23207 223.069 4.23207C224.581 4.23207 225.685 4.68807 226.285 5.04807V7.59207C225.733 7.06407 224.629 6.53607 223.381 6.53607C221.989 6.53607 221.413 6.99207 221.413 7.64007C221.413 8.43207 222.085 8.69607 224.221 9.94407C225.877 10.9041 226.813 11.7201 226.813 13.5921C226.813 15.4881 225.397 17.3601 221.917 17.3601Z" fill="#00A3FF"/>
<path d="M25.5298 17.36C21.7378 17.36 19.0498 14.432 19.0498 10.808C19.0498 7.18397 21.7378 4.23197 25.5298 4.23197C27.3298 4.23197 28.8418 4.92797 29.7058 5.79197V4.59197H32.2738V17H29.6578L29.6818 15.728C28.8658 16.568 27.5458 17.36 25.5298 17.36ZM25.7218 15.056C28.0258 15.056 29.8498 13.496 29.8498 10.784C29.8498 8.09597 28.0258 6.53597 25.7218 6.53597C23.3938 6.53597 21.6418 8.43197 21.6418 10.784C21.6418 13.136 23.3938 15.056 25.7218 15.056ZM36.1348 17V4.56797H38.7268V6.96797C39.3028 5.45597 41.1748 4.20797 43.8148 4.20797V6.34397C40.6708 6.34397 38.7748 8.14397 38.7268 10.784V17H36.1348ZM52.0506 17.36C47.4186 17.36 45.0186 14.408 45.0186 10.784C45.0186 7.15997 47.7786 4.23197 51.8106 4.23197C53.3466 4.23197 55.1466 4.68797 56.2506 5.71997V8.38397C56.2506 8.38397 54.7866 6.51197 51.8106 6.51197C49.3626 6.51197 47.5386 8.43197 47.5386 10.784C47.5386 13.352 49.2906 15.08 52.0506 15.08C54.9546 15.08 56.4906 13.784 56.4906 13.784V16.184C55.3626 17.072 53.3226 17.36 52.0506 17.36ZM58.5242 17V15.224L66.3722 6.82397H59.0042V4.56797H69.7082V6.58397L62.0762 14.744H69.9482V17H58.5242ZM73.6003 21.992L76.8403 15.56L71.6323 4.59197H74.3443L78.1843 12.824L82.0243 4.59197H84.7363L76.3603 21.992H73.6003ZM87.1348 22.088V4.59197H89.7268V5.79197C90.5908 4.92797 92.1028 4.23197 93.9028 4.23197C97.6948 4.23197 100.383 7.18397 100.383 10.808C100.383 14.432 97.6948 17.36 93.9028 17.36C91.8628 17.36 90.5428 16.568 89.7268 15.68V22.088H87.1348ZM93.9508 15.056C96.2788 15.056 97.8628 13.16 97.8628 10.808C97.8628 8.45597 96.2788 6.53597 93.9508 6.53597C91.6228 6.53597 89.5828 8.09597 89.5828 10.808C89.5828 13.496 91.6228 15.056 93.9508 15.056ZM109.164 17.36C104.796 17.36 102.3 14.36 102.3 10.784C102.3 7.06397 105.156 4.23197 108.996 4.23197C112.596 4.23197 114.684 7.20797 114.684 10.208V11.408H104.772C105.06 13.328 106.404 15.056 109.212 15.056C112.26 15.056 114.108 13.76 114.132 13.76V16.088C114.132 16.088 112.788 17.36 109.164 17.36ZM104.892 9.39197H112.092C111.996 8.43197 111.372 6.34397 108.66 6.34397C105.948 6.34397 105.036 8.43197 104.892 9.39197ZM126.365 17L121.301 10.808L120.149 11.792V17H117.557V0.703974L120.149 0.271973V8.95997L125.381 4.59197H128.741L123.221 9.22397L129.701 17H126.365Z" fill="black"/>
</g>
<g clip-path="url(#clip1_503_259)">
<path d="M67.0586 32.5813C80.9001 38.8306 95.913 42.0627 111.1 42.0627H112.652C124.517 42.0627 136.31 40.214 147.607 36.5833L160.059 32.5813" stroke="#00A3FF" stroke-width="2"/>
</g>
<defs>
<clipPath id="clip0_503_259">
<rect width="227" height="23" fill="white"/>
</clipPath>
<clipPath id="clip1_503_259">
<rect width="95" height="13" fill="white" transform="translate(66 31)"/>
</clipPath>
</defs>
</svg>
