<svg width="80" height="80" viewBox="0 0 80 80" fill="none" xmlns="http://www.w3.org/2000/svg">
<path d="M71.3666 38.6L41.3666 8.59996C40.1666 7.39996 38.5 6.66663 36.6666 6.66663H13.3333C9.66663 6.66663 6.66663 9.66663 6.66663 13.3333V36.6666C6.66663 38.5 7.39996 40.1666 8.63329 41.4L38.6333 71.4C39.8333 72.6 41.5 73.3333 43.3333 73.3333C45.1666 73.3333 46.8333 72.6 48.0333 71.3666L71.3666 48.0333C72.6 46.8333 73.3333 45.1666 73.3333 43.3333C73.3333 41.5 72.5666 39.8 71.3666 38.6ZM18.3333 23.3333C15.5666 23.3333 13.3333 21.1 13.3333 18.3333C13.3333 15.5666 15.5666 13.3333 18.3333 13.3333C21.1 13.3333 23.3333 15.5666 23.3333 18.3333C23.3333 21.1 21.1 23.3333 18.3333 23.3333Z" fill="#00A3FF"/>
</svg>
