<svg width="55" height="55" viewBox="0 0 55 55" fill="none" xmlns="http://www.w3.org/2000/svg">
<path d="M16.0417 27.5C21.0833 27.5 25.2083 23.375 25.2083 18.3333C25.2083 13.2917 21.0833 9.16666 16.0417 9.16666C11 9.16666 6.875 13.2917 6.875 18.3333C6.875 23.375 11 27.5 16.0417 27.5ZM25.2083 45.8333V33.6875C22.6875 32.7708 19.4792 32.0833 16.0417 32.0833C7.10417 32.0833 0 36.2083 0 41.25V45.8333H25.2083ZM50.4167 9.16666H34.375C31.8542 9.16666 29.7917 11.2292 29.7917 13.75V41.25C29.7917 43.7708 31.8542 45.8333 34.375 45.8333H50.4167C52.9375 45.8333 55 43.7708 55 41.25V13.75C55 11.2292 52.9375 9.16666 50.4167 9.16666ZM41.25 41.25H36.6667V13.75H41.25V41.25Z" fill="black"/>
</svg>
