<svg width="82" height="82" viewBox="0 0 82 82" fill="none" xmlns="http://www.w3.org/2000/svg">
<path d="M35.875 71.75C35.875 71.75 30.75 71.75 30.75 66.625C30.75 61.5 35.875 46.125 56.375 46.125C76.875 46.125 82 61.5 82 66.625C82 71.75 76.875 71.75 76.875 71.75H35.875ZM56.375 41C60.4527 41 64.3634 39.3801 67.2468 36.4968C70.1301 33.6134 71.75 29.7027 71.75 25.625C71.75 21.5473 70.1301 17.6366 67.2468 14.7532C64.3634 11.8699 60.4527 10.25 56.375 10.25C52.2973 10.25 48.3866 11.8699 45.5032 14.7532C42.6199 17.6366 41 21.5473 41 25.625C41 29.7027 42.6199 33.6134 45.5032 36.4968C48.3866 39.3801 52.2973 41 56.375 41ZM26.732 71.75C25.9722 70.1501 25.5933 68.3959 25.625 66.625C25.625 59.6806 29.11 52.5312 35.547 47.56C32.3341 46.57 28.9867 46.0859 25.625 46.125C5.125 46.125 0 61.5 0 66.625C0 71.75 5.125 71.75 5.125 71.75H26.732ZM23.0625 41C26.4606 41 29.7195 39.6501 32.1223 37.2473C34.5251 34.8445 35.875 31.5856 35.875 28.1875C35.875 24.7894 34.5251 21.5305 32.1223 19.1277C29.7195 16.7249 26.4606 15.375 23.0625 15.375C19.6644 15.375 16.4055 16.7249 14.0027 19.1277C11.5999 21.5305 10.25 24.7894 10.25 28.1875C10.25 31.5856 11.5999 34.8445 14.0027 37.2473C16.4055 39.6501 19.6644 41 23.0625 41Z" fill="#00A3FF"/>
</svg>
