<svg width="192" height="24" viewBox="0 0 192 24" fill="none" xmlns="http://www.w3.org/2000/svg">
<path fill-rule="evenodd" clip-rule="evenodd" d="M53.292 3.308C52.898 3.822 52.454 4.616 51.808 5.774L51.481 6.361L51.422 6.467C51.122 7.007 50.867 7.465 50.458 7.775C50.045 8.089 49.541 8.202 48.955 8.334L48.841 8.36L48.205 8.504C46.95 8.788 46.095 8.983 45.511 9.214C44.94 9.438 44.82 9.623 44.774 9.77C44.725 9.926 44.724 10.165 45.064 10.707C45.411 11.257 45.996 11.943 46.85 12.943L47.284 13.45L47.359 13.537C47.762 14.007 48.098 14.399 48.252 14.895C48.405 15.388 48.354 15.905 48.292 16.533L48.282 16.65L48.216 17.327C48.086 18.659 48 19.577 48.029 20.237C48.059 20.897 48.198 21.079 48.309 21.163C48.407 21.238 48.589 21.32 49.182 21.15C49.785 20.978 50.587 20.611 51.762 20.07L52.358 19.796L52.467 19.746C53.012 19.493 53.484 19.275 54 19.275C54.516 19.275 54.988 19.493 55.533 19.745C55.5693 19.7625 55.606 19.7791 55.643 19.795L56.238 20.07C57.413 20.611 58.215 20.978 58.818 21.15C59.411 21.32 59.593 21.238 59.691 21.163C59.802 21.079 59.941 20.896 59.971 20.237C60.001 19.577 59.913 18.659 59.784 17.327L59.718 16.65L59.708 16.533C59.646 15.905 59.595 15.388 59.748 14.895C59.902 14.399 60.238 14.007 60.641 13.537L60.716 13.45L61.15 12.943C62.004 11.943 62.589 11.257 62.935 10.707C63.276 10.165 63.275 9.927 63.226 9.77C63.18 9.623 63.06 9.438 62.489 9.214C61.904 8.983 61.05 8.788 59.795 8.504L59.159 8.36C59.12 8.35 59.082 8.342 59.045 8.334C58.459 8.202 57.955 8.089 57.542 7.775C57.132 7.465 56.879 7.008 56.578 6.467L56.52 6.361L56.192 5.774C55.546 4.616 55.102 3.822 54.708 3.308C54.315 2.794 54.114 2.75 54 2.75C53.886 2.75 53.685 2.794 53.292 3.308ZM52.102 2.396C52.577 1.774 53.166 1.25 54 1.25C54.834 1.25 55.422 1.774 55.899 2.396C56.367 3.008 56.864 3.899 57.471 4.988L57.83 5.631C58.222 6.335 58.323 6.485 58.449 6.581C58.569 6.672 58.726 6.724 59.489 6.897L60.189 7.055C61.365 7.321 62.334 7.54 63.039 7.818C63.771 8.107 64.412 8.532 64.659 9.325C64.903 10.11 64.629 10.832 64.205 11.505C63.793 12.16 63.135 12.93 62.331 13.87L61.856 14.425C61.339 15.029 61.231 15.177 61.18 15.34C61.129 15.507 61.133 15.7 61.212 16.505L61.283 17.243C61.405 18.499 61.504 19.523 61.469 20.303C61.434 21.098 61.254 21.86 60.599 22.358C59.931 22.864 59.154 22.808 58.404 22.592C57.677 22.384 56.771 21.967 55.671 21.46L55.015 21.158C54.297 20.828 54.144 20.775 54 20.775C53.856 20.775 53.703 20.828 52.985 21.158L52.33 21.46C51.229 21.967 50.323 22.384 49.596 22.592C48.846 22.807 48.069 22.864 47.402 22.358C46.746 21.86 46.566 21.098 46.531 20.304C46.496 19.524 46.595 18.499 46.717 17.244L46.789 16.505C46.867 15.699 46.871 15.507 46.819 15.34C46.769 15.177 46.661 15.03 46.144 14.425L45.669 13.87C44.866 12.93 44.208 12.16 43.796 11.506C43.371 10.832 43.097 10.11 43.341 9.325C43.588 8.532 44.229 8.107 44.961 7.818C45.666 7.54 46.635 7.321 47.811 7.055L47.874 7.041L48.51 6.897C49.274 6.724 49.43 6.672 49.551 6.58C49.677 6.485 49.778 6.335 50.171 5.631L50.529 4.988C51.136 3.898 51.633 3.008 52.101 2.396H52.102Z" fill="white"/>
<path fill-rule="evenodd" clip-rule="evenodd" d="M137.292 3.308C136.898 3.822 136.454 4.616 135.808 5.774L135.481 6.361L135.422 6.467C135.122 7.007 134.867 7.465 134.458 7.775C134.045 8.089 133.541 8.202 132.955 8.334L132.841 8.36L132.205 8.504C130.95 8.788 130.095 8.983 129.511 9.214C128.94 9.438 128.82 9.623 128.774 9.77C128.725 9.926 128.724 10.165 129.064 10.707C129.411 11.257 129.996 11.943 130.85 12.943L131.284 13.45L131.359 13.537C131.762 14.007 132.098 14.399 132.252 14.895C132.405 15.388 132.354 15.905 132.292 16.533L132.282 16.65L132.216 17.327C132.086 18.659 132 19.577 132.029 20.237C132.059 20.897 132.198 21.079 132.309 21.163C132.407 21.238 132.589 21.32 133.182 21.15C133.785 20.978 134.587 20.611 135.762 20.07L136.358 19.796L136.467 19.746C137.012 19.493 137.484 19.275 138 19.275C138.516 19.275 138.988 19.493 139.533 19.745C139.569 19.7625 139.606 19.7791 139.643 19.795L140.238 20.07C141.413 20.611 142.215 20.978 142.818 21.15C143.411 21.32 143.593 21.238 143.691 21.163C143.802 21.079 143.941 20.896 143.971 20.237C144.001 19.577 143.913 18.659 143.784 17.327L143.718 16.65L143.708 16.533C143.646 15.905 143.595 15.388 143.748 14.895C143.902 14.399 144.238 14.007 144.641 13.537L144.716 13.45L145.15 12.943C146.004 11.943 146.589 11.257 146.935 10.707C147.276 10.165 147.275 9.927 147.226 9.77C147.18 9.623 147.06 9.438 146.489 9.214C145.904 8.983 145.05 8.788 143.795 8.504L143.159 8.36C143.12 8.35 143.082 8.342 143.045 8.334C142.459 8.202 141.955 8.089 141.542 7.775C141.132 7.465 140.879 7.008 140.578 6.467L140.52 6.361L140.192 5.774C139.546 4.616 139.102 3.822 138.708 3.308C138.315 2.794 138.114 2.75 138 2.75C137.886 2.75 137.685 2.794 137.292 3.308ZM136.102 2.396C136.577 1.774 137.166 1.25 138 1.25C138.834 1.25 139.422 1.774 139.899 2.396C140.367 3.008 140.864 3.899 141.471 4.988L141.83 5.631C142.222 6.335 142.323 6.485 142.449 6.581C142.569 6.672 142.726 6.724 143.489 6.897L144.189 7.055C145.365 7.321 146.334 7.54 147.039 7.818C147.771 8.107 148.412 8.532 148.659 9.325C148.903 10.11 148.629 10.832 148.205 11.505C147.793 12.16 147.135 12.93 146.331 13.87L145.856 14.425C145.339 15.029 145.231 15.177 145.18 15.34C145.129 15.507 145.133 15.7 145.212 16.505L145.283 17.243C145.405 18.499 145.504 19.523 145.469 20.303C145.434 21.098 145.254 21.86 144.599 22.358C143.931 22.864 143.154 22.808 142.404 22.592C141.677 22.384 140.771 21.967 139.671 21.46L139.015 21.158C138.297 20.828 138.144 20.775 138 20.775C137.856 20.775 137.703 20.828 136.985 21.158L136.33 21.46C135.229 21.967 134.323 22.384 133.596 22.592C132.846 22.807 132.069 22.864 131.402 22.358C130.746 21.86 130.566 21.098 130.531 20.304C130.496 19.524 130.595 18.499 130.717 17.244L130.789 16.505C130.867 15.699 130.871 15.507 130.819 15.34C130.769 15.177 130.661 15.03 130.144 14.425L129.669 13.87C128.866 12.93 128.208 12.16 127.796 11.506C127.371 10.832 127.097 10.11 127.341 9.325C127.588 8.532 128.229 8.107 128.961 7.818C129.666 7.54 130.635 7.321 131.811 7.055L131.874 7.041L132.51 6.897C133.274 6.724 133.43 6.672 133.551 6.58C133.677 6.485 133.778 6.335 134.171 5.631L134.529 4.988C135.136 3.898 135.633 3.008 136.101 2.396H136.102Z" fill="white"/>
<path fill-rule="evenodd" clip-rule="evenodd" d="M179.292 3.308C178.898 3.822 178.454 4.616 177.808 5.774L177.481 6.361L177.422 6.467C177.122 7.007 176.867 7.465 176.458 7.775C176.045 8.089 175.541 8.202 174.955 8.334L174.841 8.36L174.205 8.504C172.95 8.788 172.095 8.983 171.511 9.214C170.94 9.438 170.82 9.623 170.774 9.77C170.725 9.926 170.724 10.165 171.064 10.707C171.411 11.257 171.996 11.943 172.85 12.943L173.284 13.45L173.359 13.537C173.762 14.007 174.098 14.399 174.252 14.895C174.405 15.388 174.354 15.905 174.292 16.533L174.282 16.65L174.216 17.327C174.086 18.659 174 19.577 174.029 20.237C174.059 20.897 174.198 21.079 174.309 21.163C174.407 21.238 174.589 21.32 175.182 21.15C175.785 20.978 176.587 20.611 177.762 20.07L178.358 19.796L178.467 19.746C179.012 19.493 179.484 19.275 180 19.275C180.516 19.275 180.988 19.493 181.533 19.745C181.569 19.7625 181.606 19.7791 181.643 19.795L182.238 20.07C183.413 20.611 184.215 20.978 184.818 21.15C185.411 21.32 185.593 21.238 185.691 21.163C185.802 21.079 185.941 20.896 185.971 20.237C186.001 19.577 185.913 18.659 185.784 17.327L185.718 16.65L185.708 16.533C185.646 15.905 185.595 15.388 185.748 14.895C185.902 14.399 186.238 14.007 186.641 13.537L186.716 13.45L187.15 12.943C188.004 11.943 188.589 11.257 188.935 10.707C189.276 10.165 189.275 9.927 189.226 9.77C189.18 9.623 189.06 9.438 188.489 9.214C187.904 8.983 187.05 8.788 185.795 8.504L185.159 8.36C185.12 8.35 185.082 8.342 185.045 8.334C184.459 8.202 183.955 8.089 183.542 7.775C183.132 7.465 182.879 7.008 182.578 6.467L182.52 6.361L182.192 5.774C181.546 4.616 181.102 3.822 180.708 3.308C180.315 2.794 180.114 2.75 180 2.75C179.886 2.75 179.685 2.794 179.292 3.308ZM178.102 2.396C178.577 1.774 179.166 1.25 180 1.25C180.834 1.25 181.422 1.774 181.899 2.396C182.367 3.008 182.864 3.899 183.471 4.988L183.83 5.631C184.222 6.335 184.323 6.485 184.449 6.581C184.569 6.672 184.726 6.724 185.489 6.897L186.189 7.055C187.365 7.321 188.334 7.54 189.039 7.818C189.771 8.107 190.412 8.532 190.659 9.325C190.903 10.11 190.629 10.832 190.205 11.505C189.793 12.16 189.135 12.93 188.331 13.87L187.856 14.425C187.339 15.029 187.231 15.177 187.18 15.34C187.129 15.507 187.133 15.7 187.212 16.505L187.283 17.243C187.405 18.499 187.504 19.523 187.469 20.303C187.434 21.098 187.254 21.86 186.599 22.358C185.931 22.864 185.154 22.808 184.404 22.592C183.677 22.384 182.771 21.967 181.671 21.46L181.015 21.158C180.297 20.828 180.144 20.775 180 20.775C179.856 20.775 179.703 20.828 178.985 21.158L178.33 21.46C177.229 21.967 176.323 22.384 175.596 22.592C174.846 22.807 174.069 22.864 173.402 22.358C172.746 21.86 172.566 21.098 172.531 20.304C172.496 19.524 172.595 18.499 172.717 17.244L172.789 16.505C172.867 15.699 172.871 15.507 172.819 15.34C172.769 15.177 172.661 15.03 172.144 14.425L171.669 13.87C170.866 12.93 170.208 12.16 169.796 11.506C169.371 10.832 169.097 10.11 169.341 9.325C169.588 8.532 170.229 8.107 170.961 7.818C171.666 7.54 172.635 7.321 173.811 7.055L173.874 7.041L174.51 6.897C175.274 6.724 175.43 6.672 175.551 6.58C175.677 6.485 175.778 6.335 176.171 5.631L176.529 4.988C177.136 3.898 177.633 3.008 178.101 2.396H178.102Z" fill="white"/>
<path fill-rule="evenodd" clip-rule="evenodd" d="M95.292 3.308C94.898 3.822 94.454 4.616 93.808 5.774L93.481 6.361L93.422 6.467C93.122 7.007 92.867 7.465 92.458 7.775C92.045 8.089 91.541 8.202 90.955 8.334L90.841 8.36L90.205 8.504C88.95 8.788 88.095 8.983 87.511 9.214C86.94 9.438 86.82 9.623 86.774 9.77C86.725 9.926 86.724 10.165 87.064 10.707C87.411 11.257 87.996 11.943 88.85 12.943L89.284 13.45L89.359 13.537C89.762 14.007 90.098 14.399 90.252 14.895C90.405 15.388 90.354 15.905 90.292 16.533L90.282 16.65L90.216 17.327C90.086 18.659 90 19.577 90.029 20.237C90.059 20.897 90.198 21.079 90.309 21.163C90.407 21.238 90.589 21.32 91.182 21.15C91.785 20.978 92.587 20.611 93.762 20.07L94.358 19.796L94.467 19.746C95.012 19.493 95.484 19.275 96 19.275C96.516 19.275 96.988 19.493 97.533 19.745C97.5693 19.7625 97.606 19.7791 97.643 19.795L98.238 20.07C99.413 20.611 100.215 20.978 100.818 21.15C101.411 21.32 101.593 21.238 101.691 21.163C101.802 21.079 101.941 20.896 101.971 20.237C102.001 19.577 101.913 18.659 101.784 17.327L101.718 16.65L101.708 16.533C101.646 15.905 101.595 15.388 101.748 14.895C101.902 14.399 102.238 14.007 102.641 13.537L102.716 13.45L103.15 12.943C104.004 11.943 104.589 11.257 104.935 10.707C105.276 10.165 105.275 9.927 105.226 9.77C105.18 9.623 105.06 9.438 104.489 9.214C103.904 8.983 103.05 8.788 101.795 8.504L101.159 8.36C101.12 8.35 101.082 8.342 101.045 8.334C100.459 8.202 99.955 8.089 99.542 7.775C99.132 7.465 98.879 7.008 98.578 6.467L98.52 6.361L98.192 5.774C97.546 4.616 97.102 3.822 96.708 3.308C96.315 2.794 96.114 2.75 96 2.75C95.886 2.75 95.685 2.794 95.292 3.308ZM94.102 2.396C94.577 1.774 95.166 1.25 96 1.25C96.834 1.25 97.422 1.774 97.899 2.396C98.367 3.008 98.864 3.899 99.471 4.988L99.83 5.631C100.222 6.335 100.323 6.485 100.449 6.581C100.569 6.672 100.726 6.724 101.489 6.897L102.189 7.055C103.365 7.321 104.334 7.54 105.039 7.818C105.771 8.107 106.412 8.532 106.659 9.325C106.903 10.11 106.629 10.832 106.205 11.505C105.793 12.16 105.135 12.93 104.331 13.87L103.856 14.425C103.339 15.029 103.231 15.177 103.18 15.34C103.129 15.507 103.133 15.7 103.212 16.505L103.283 17.243C103.405 18.499 103.504 19.523 103.469 20.303C103.434 21.098 103.254 21.86 102.599 22.358C101.931 22.864 101.154 22.808 100.404 22.592C99.677 22.384 98.771 21.967 97.671 21.46L97.015 21.158C96.297 20.828 96.144 20.775 96 20.775C95.856 20.775 95.703 20.828 94.985 21.158L94.33 21.46C93.229 21.967 92.323 22.384 91.596 22.592C90.846 22.807 90.069 22.864 89.402 22.358C88.746 21.86 88.566 21.098 88.531 20.304C88.496 19.524 88.595 18.499 88.717 17.244L88.789 16.505C88.867 15.699 88.871 15.507 88.819 15.34C88.769 15.177 88.661 15.03 88.144 14.425L87.669 13.87C86.866 12.93 86.208 12.16 85.796 11.506C85.371 10.832 85.097 10.11 85.341 9.325C85.588 8.532 86.229 8.107 86.961 7.818C87.666 7.54 88.635 7.321 89.811 7.055L89.874 7.041L90.51 6.897C91.274 6.724 91.43 6.672 91.551 6.58C91.677 6.485 91.778 6.335 92.171 5.631L92.529 4.988C93.136 3.898 93.633 3.008 94.101 2.396H94.102Z" fill="white"/>
<path fill-rule="evenodd" clip-rule="evenodd" d="M11.292 3.308C10.898 3.822 10.454 4.616 9.80799 5.774L9.48099 6.361L9.42199 6.467C9.12199 7.007 8.86699 7.465 8.45799 7.775C8.04499 8.089 7.54099 8.202 6.95499 8.334L6.84099 8.36L6.20499 8.504C4.94999 8.788 4.09499 8.983 3.51099 9.214C2.93999 9.438 2.81999 9.623 2.77399 9.77C2.72499 9.926 2.72399 10.165 3.06399 10.707C3.41099 11.257 3.99599 11.943 4.84999 12.943L5.28399 13.45L5.35899 13.537C5.76199 14.007 6.09799 14.399 6.25199 14.895C6.40499 15.388 6.35399 15.905 6.29199 16.533L6.28199 16.65L6.21599 17.327C6.08599 18.659 5.99999 19.577 6.02899 20.237C6.05899 20.897 6.19799 21.079 6.30899 21.163C6.40699 21.238 6.58899 21.32 7.18199 21.15C7.78499 20.978 8.58699 20.611 9.76199 20.07L10.358 19.796L10.467 19.746C11.012 19.493 11.484 19.275 12 19.275C12.516 19.275 12.988 19.493 13.533 19.745C13.5693 19.7625 13.606 19.7791 13.643 19.795L14.238 20.07C15.413 20.611 16.215 20.978 16.818 21.15C17.411 21.32 17.593 21.238 17.691 21.163C17.802 21.079 17.941 20.896 17.971 20.237C18.001 19.577 17.913 18.659 17.784 17.327L17.718 16.65L17.708 16.533C17.646 15.905 17.595 15.388 17.748 14.895C17.902 14.399 18.238 14.007 18.641 13.537L18.716 13.45L19.15 12.943C20.004 11.943 20.589 11.257 20.935 10.707C21.276 10.165 21.275 9.927 21.226 9.77C21.18 9.623 21.06 9.438 20.489 9.214C19.904 8.983 19.05 8.788 17.795 8.504L17.159 8.36C17.12 8.35 17.082 8.342 17.045 8.334C16.459 8.202 15.955 8.089 15.542 7.775C15.132 7.465 14.879 7.008 14.578 6.467L14.52 6.361L14.192 5.774C13.546 4.616 13.102 3.822 12.708 3.308C12.315 2.794 12.114 2.75 12 2.75C11.886 2.75 11.685 2.794 11.292 3.308ZM10.102 2.396C10.577 1.774 11.166 1.25 12 1.25C12.834 1.25 13.422 1.774 13.899 2.396C14.367 3.008 14.864 3.899 15.471 4.988L15.83 5.631C16.222 6.335 16.323 6.485 16.449 6.581C16.569 6.672 16.726 6.724 17.489 6.897L18.189 7.055C19.365 7.321 20.334 7.54 21.039 7.818C21.771 8.107 22.412 8.532 22.659 9.325C22.903 10.11 22.629 10.832 22.205 11.505C21.793 12.16 21.135 12.93 20.331 13.87L19.856 14.425C19.339 15.029 19.231 15.177 19.18 15.34C19.129 15.507 19.133 15.7 19.212 16.505L19.283 17.243C19.405 18.499 19.504 19.523 19.469 20.303C19.434 21.098 19.254 21.86 18.599 22.358C17.931 22.864 17.154 22.808 16.404 22.592C15.677 22.384 14.771 21.967 13.671 21.46L13.015 21.158C12.297 20.828 12.144 20.775 12 20.775C11.856 20.775 11.703 20.828 10.985 21.158L10.33 21.46C9.22899 21.967 8.32299 22.384 7.59599 22.592C6.84599 22.807 6.06899 22.864 5.40199 22.358C4.74599 21.86 4.56599 21.098 4.53099 20.304C4.49599 19.524 4.59499 18.499 4.71699 17.244L4.78899 16.505C4.86699 15.699 4.87099 15.507 4.81899 15.34C4.76899 15.177 4.66099 15.03 4.14399 14.425L3.66899 13.87C2.86599 12.93 2.20799 12.16 1.79599 11.506C1.37099 10.832 1.09699 10.11 1.34099 9.325C1.58799 8.532 2.22899 8.107 2.96099 7.818C3.66599 7.54 4.63499 7.321 5.81099 7.055L5.87399 7.041L6.50999 6.897C7.27399 6.724 7.42999 6.672 7.55099 6.58C7.67699 6.485 7.77799 6.335 8.17099 5.631L8.52899 4.988C9.13599 3.898 9.63299 3.008 10.101 2.396H10.102Z" fill="white"/>
</svg>
